<?xml version="1.0" encoding="utf-8" standalone="no"?>
<!DOCTYPE svg PUBLIC "-//W3C//DTD SVG 1.1//EN"
        "http://www.w3.org/Graphics/SVG/1.1/DTD/svg11.dtd">
<svg xmlns:xlink="http://www.w3.org/1999/xlink" width="576pt" height="576pt" viewBox="0 0 576 576"
     xmlns="http://www.w3.org/2000/svg" version="1.1">
    <metadata>
        <rdf:RDF xmlns:dc="http://purl.org/dc/elements/1.1/" xmlns:cc="http://creativecommons.org/ns#"
                 xmlns:rdf="http://www.w3.org/1999/02/22-rdf-syntax-ns#">
            <cc:Work>
                <dc:type rdf:resource="http://purl.org/dc/dcmitype/StillImage"/>
                <dc:date>2025-03-20T16:13:35.498546</dc:date>
                <dc:format>image/svg+xml</dc:format>
                <dc:creator>
                    <cc:Agent>
                        <dc:title>Matplotlib v3.8.0, https://matplotlib.org/</dc:title>
                    </cc:Agent>
                </dc:creator>
            </cc:Work>
        </rdf:RDF>
    </metadata>
    <defs>
        <style type="text/css">*{stroke-linejoin: round; stroke-linecap: butt}</style>
    </defs>
    <g id="figure_1">
        <g id="patch_1">
            <path d="M 0 576
L 576 576 
L 576 0 
L 0 0 
z
" style="fill: #ffffff"/>
        </g>
        <g id="axes_1">
            <g id="patch_2">
                <path d="M 72 512.64
L 518.4 512.64 
L 518.4 69.12 
L 72 69.12 
z
" style="fill: #ffffff"/>
            </g>
            <g id="matplotlib.axis_1">
                <g id="xtick_1">
                    <g id="line2d_1">
                        <path d="M 116.64 512.64
L 116.64 69.12 
" clip-path="url(#p9f91a67293)" style="fill: none; stroke: #b0b0b0; stroke-width: 0.8; stroke-linecap: square"/>
                    </g>
                    <g id="line2d_2">
                        <defs>
                            <path id="me5346eb394" d="M 0 0
L 0 3.5 
" style="stroke: #000000; stroke-width: 0.8"/>
                        </defs>
                        <g>
                            <use xlink:href="#me5346eb394" x="116.64" y="512.64"
                                 style="stroke: #000000; stroke-width: 0.8"/>
                        </g>
                    </g>
                    <g id="text_1">
                        <!-- −4 -->
                        <g transform="translate(109.268906 527.238438) scale(0.1 -0.1)">
                            <defs>
                                <path id="DejaVuSans-2212" d="M 678 2272
L 4684 2272 
L 4684 1741 
L 678 1741 
L 678 2272 
z
" transform="scale(0.015625)"/>
                                <path id="DejaVuSans-34" d="M 2419 4116
L 825 1625 
L 2419 1625 
L 2419 4116 
z
M 2253 4666 
L 3047 4666 
L 3047 1625 
L 3713 1625 
L 3713 1100 
L 3047 1100 
L 3047 0 
L 2419 0 
L 2419 1100 
L 313 1100 
L 313 1709 
L 2253 4666 
z
" transform="scale(0.015625)"/>
                            </defs>
                            <use xlink:href="#DejaVuSans-2212"/>
                            <use xlink:href="#DejaVuSans-34" x="83.789062"/>
                        </g>
                    </g>
                </g>
                <g id="xtick_2">
                    <g id="line2d_3">
                        <path d="M 205.92 512.64
L 205.92 69.12 
" clip-path="url(#p9f91a67293)" style="fill: none; stroke: #b0b0b0; stroke-width: 0.8; stroke-linecap: square"/>
                    </g>
                    <g id="line2d_4">
                        <g>
                            <use xlink:href="#me5346eb394" x="205.92" y="512.64"
                                 style="stroke: #000000; stroke-width: 0.8"/>
                        </g>
                    </g>
                    <g id="text_2">
                        <!-- −2 -->
                        <g transform="translate(198.548906 527.238438) scale(0.1 -0.1)">
                            <defs>
                                <path id="DejaVuSans-32" d="M 1228 531
L 3431 531 
L 3431 0 
L 469 0 
L 469 531 
Q 828 903 1448 1529 
Q 2069 2156 2228 2338 
Q 2531 2678 2651 2914 
Q 2772 3150 2772 3378 
Q 2772 3750 2511 3984 
Q 2250 4219 1831 4219 
Q 1534 4219 1204 4116 
Q 875 4013 500 3803 
L 500 4441 
Q 881 4594 1212 4672 
Q 1544 4750 1819 4750 
Q 2544 4750 2975 4387 
Q 3406 4025 3406 3419 
Q 3406 3131 3298 2873 
Q 3191 2616 2906 2266 
Q 2828 2175 2409 1742 
Q 1991 1309 1228 531 
z
" transform="scale(0.015625)"/>
                            </defs>
                            <use xlink:href="#DejaVuSans-2212"/>
                            <use xlink:href="#DejaVuSans-32" x="83.789062"/>
                        </g>
                    </g>
                </g>
                <g id="xtick_3">
                    <g id="line2d_5">
                        <path d="M 295.2 512.64
L 295.2 69.12 
" clip-path="url(#p9f91a67293)" style="fill: none; stroke: #b0b0b0; stroke-width: 0.8; stroke-linecap: square"/>
                    </g>
                    <g id="line2d_6">
                        <g>
                            <use xlink:href="#me5346eb394" x="295.2" y="512.64"
                                 style="stroke: #000000; stroke-width: 0.8"/>
                        </g>
                    </g>
                    <g id="text_3">
                        <!-- 0 -->
                        <g transform="translate(292.01875 527.238438) scale(0.1 -0.1)">
                            <defs>
                                <path id="DejaVuSans-30" d="M 2034 4250
Q 1547 4250 1301 3770 
Q 1056 3291 1056 2328 
Q 1056 1369 1301 889 
Q 1547 409 2034 409 
Q 2525 409 2770 889 
Q 3016 1369 3016 2328 
Q 3016 3291 2770 3770 
Q 2525 4250 2034 4250 
z
M 2034 4750 
Q 2819 4750 3233 4129 
Q 3647 3509 3647 2328 
Q 3647 1150 3233 529 
Q 2819 -91 2034 -91 
Q 1250 -91 836 529 
Q 422 1150 422 2328 
Q 422 3509 836 4129 
Q 1250 4750 2034 4750 
z
" transform="scale(0.015625)"/>
                            </defs>
                            <use xlink:href="#DejaVuSans-30"/>
                        </g>
                    </g>
                </g>
                <g id="xtick_4">
                    <g id="line2d_7">
                        <path d="M 384.48 512.64
L 384.48 69.12 
" clip-path="url(#p9f91a67293)" style="fill: none; stroke: #b0b0b0; stroke-width: 0.8; stroke-linecap: square"/>
                    </g>
                    <g id="line2d_8">
                        <g>
                            <use xlink:href="#me5346eb394" x="384.48" y="512.64"
                                 style="stroke: #000000; stroke-width: 0.8"/>
                        </g>
                    </g>
                    <g id="text_4">
                        <!-- 2 -->
                        <g transform="translate(381.29875 527.238438) scale(0.1 -0.1)">
                            <use xlink:href="#DejaVuSans-32"/>
                        </g>
                    </g>
                </g>
                <g id="xtick_5">
                    <g id="line2d_9">
                        <path d="M 473.76 512.64
L 473.76 69.12 
" clip-path="url(#p9f91a67293)" style="fill: none; stroke: #b0b0b0; stroke-width: 0.8; stroke-linecap: square"/>
                    </g>
                    <g id="line2d_10">
                        <g>
                            <use xlink:href="#me5346eb394" x="473.76" y="512.64"
                                 style="stroke: #000000; stroke-width: 0.8"/>
                        </g>
                    </g>
                    <g id="text_5">
                        <!-- 4 -->
                        <g transform="translate(470.57875 527.238438) scale(0.1 -0.1)">
                            <use xlink:href="#DejaVuSans-34"/>
                        </g>
                    </g>
                </g>
                <g id="text_6">
                    <!-- Space [z] -->
                    <g transform="translate(271.846875 540.916563) scale(0.1 -0.1)">
                        <defs>
                            <path id="DejaVuSans-53" d="M 3425 4513
L 3425 3897 
Q 3066 4069 2747 4153 
Q 2428 4238 2131 4238 
Q 1616 4238 1336 4038 
Q 1056 3838 1056 3469 
Q 1056 3159 1242 3001 
Q 1428 2844 1947 2747 
L 2328 2669 
Q 3034 2534 3370 2195 
Q 3706 1856 3706 1288 
Q 3706 609 3251 259 
Q 2797 -91 1919 -91 
Q 1588 -91 1214 -16 
Q 841 59 441 206 
L 441 856 
Q 825 641 1194 531 
Q 1563 422 1919 422 
Q 2459 422 2753 634 
Q 3047 847 3047 1241 
Q 3047 1584 2836 1778 
Q 2625 1972 2144 2069 
L 1759 2144 
Q 1053 2284 737 2584 
Q 422 2884 422 3419 
Q 422 4038 858 4394 
Q 1294 4750 2059 4750 
Q 2388 4750 2728 4690 
Q 3069 4631 3425 4513 
z
" transform="scale(0.015625)"/>
                            <path id="DejaVuSans-70" d="M 1159 525
L 1159 -1331 
L 581 -1331 
L 581 3500 
L 1159 3500 
L 1159 2969 
Q 1341 3281 1617 3432 
Q 1894 3584 2278 3584 
Q 2916 3584 3314 3078 
Q 3713 2572 3713 1747 
Q 3713 922 3314 415 
Q 2916 -91 2278 -91 
Q 1894 -91 1617 61 
Q 1341 213 1159 525 
z
M 3116 1747 
Q 3116 2381 2855 2742 
Q 2594 3103 2138 3103 
Q 1681 3103 1420 2742 
Q 1159 2381 1159 1747 
Q 1159 1113 1420 752 
Q 1681 391 2138 391 
Q 2594 391 2855 752 
Q 3116 1113 3116 1747 
z
" transform="scale(0.015625)"/>
                            <path id="DejaVuSans-61" d="M 2194 1759
Q 1497 1759 1228 1600 
Q 959 1441 959 1056 
Q 959 750 1161 570 
Q 1363 391 1709 391 
Q 2188 391 2477 730 
Q 2766 1069 2766 1631 
L 2766 1759 
L 2194 1759 
z
M 3341 1997 
L 3341 0 
L 2766 0 
L 2766 531 
Q 2569 213 2275 61 
Q 1981 -91 1556 -91 
Q 1019 -91 701 211 
Q 384 513 384 1019 
Q 384 1609 779 1909 
Q 1175 2209 1959 2209 
L 2766 2209 
L 2766 2266 
Q 2766 2663 2505 2880 
Q 2244 3097 1772 3097 
Q 1472 3097 1187 3025 
Q 903 2953 641 2809 
L 641 3341 
Q 956 3463 1253 3523 
Q 1550 3584 1831 3584 
Q 2591 3584 2966 3190 
Q 3341 2797 3341 1997 
z
" transform="scale(0.015625)"/>
                            <path id="DejaVuSans-63" d="M 3122 3366
L 3122 2828 
Q 2878 2963 2633 3030 
Q 2388 3097 2138 3097 
Q 1578 3097 1268 2742 
Q 959 2388 959 1747 
Q 959 1106 1268 751 
Q 1578 397 2138 397 
Q 2388 397 2633 464 
Q 2878 531 3122 666 
L 3122 134 
Q 2881 22 2623 -34 
Q 2366 -91 2075 -91 
Q 1284 -91 818 406 
Q 353 903 353 1747 
Q 353 2603 823 3093 
Q 1294 3584 2113 3584 
Q 2378 3584 2631 3529 
Q 2884 3475 3122 3366 
z
" transform="scale(0.015625)"/>
                            <path id="DejaVuSans-65" d="M 3597 1894
L 3597 1613 
L 953 1613 
Q 991 1019 1311 708 
Q 1631 397 2203 397 
Q 2534 397 2845 478 
Q 3156 559 3463 722 
L 3463 178 
Q 3153 47 2828 -22 
Q 2503 -91 2169 -91 
Q 1331 -91 842 396 
Q 353 884 353 1716 
Q 353 2575 817 3079 
Q 1281 3584 2069 3584 
Q 2775 3584 3186 3129 
Q 3597 2675 3597 1894 
z
M 3022 2063 
Q 3016 2534 2758 2815 
Q 2500 3097 2075 3097 
Q 1594 3097 1305 2825 
Q 1016 2553 972 2059 
L 3022 2063 
z
" transform="scale(0.015625)"/>
                            <path id="DejaVuSans-20" transform="scale(0.015625)"/>
                            <path id="DejaVuSans-5b" d="M 550 4863
L 1875 4863 
L 1875 4416 
L 1125 4416 
L 1125 -397 
L 1875 -397 
L 1875 -844 
L 550 -844 
L 550 4863 
z
" transform="scale(0.015625)"/>
                            <path id="DejaVuSans-7a" d="M 353 3500
L 3084 3500 
L 3084 2975 
L 922 459 
L 3084 459 
L 3084 0 
L 275 0 
L 275 525 
L 2438 3041 
L 353 3041 
L 353 3500 
z
" transform="scale(0.015625)"/>
                            <path id="DejaVuSans-5d" d="M 1947 4863
L 1947 -844 
L 622 -844 
L 622 -397 
L 1369 -397 
L 1369 4416 
L 622 4416 
L 622 4863 
L 1947 4863 
z
" transform="scale(0.015625)"/>
                        </defs>
                        <use xlink:href="#DejaVuSans-53"/>
                        <use xlink:href="#DejaVuSans-70" x="63.476562"/>
                        <use xlink:href="#DejaVuSans-61" x="126.953125"/>
                        <use xlink:href="#DejaVuSans-63" x="188.232422"/>
                        <use xlink:href="#DejaVuSans-65" x="243.212891"/>
                        <use xlink:href="#DejaVuSans-20" x="304.736328"/>
                        <use xlink:href="#DejaVuSans-5b" x="336.523438"/>
                        <use xlink:href="#DejaVuSans-7a" x="375.537109"/>
                        <use xlink:href="#DejaVuSans-5d" x="428.027344"/>
                    </g>
                </g>
            </g>
            <g id="matplotlib.axis_2">
                <g id="ytick_1">
                    <g id="line2d_11">
                        <path d="M 72 468.288
L 518.4 468.288 
" clip-path="url(#p9f91a67293)" style="fill: none; stroke: #b0b0b0; stroke-width: 0.8; stroke-linecap: square"/>
                    </g>
                    <g id="line2d_12">
                        <defs>
                            <path id="ma153114878" d="M 0 0
L -3.5 0 
" style="stroke: #000000; stroke-width: 0.8"/>
                        </defs>
                        <g>
                            <use xlink:href="#ma153114878" x="72" y="468.288"
                                 style="stroke: #000000; stroke-width: 0.8"/>
                        </g>
                    </g>
                    <g id="text_7">
                        <!-- −4 -->
                        <g transform="translate(50.257812 472.087219) scale(0.1 -0.1)">
                            <use xlink:href="#DejaVuSans-2212"/>
                            <use xlink:href="#DejaVuSans-34" x="83.789062"/>
                        </g>
                    </g>
                </g>
                <g id="ytick_2">
                    <g id="line2d_13">
                        <path d="M 72 379.584
L 518.4 379.584 
" clip-path="url(#p9f91a67293)" style="fill: none; stroke: #b0b0b0; stroke-width: 0.8; stroke-linecap: square"/>
                    </g>
                    <g id="line2d_14">
                        <g>
                            <use xlink:href="#ma153114878" x="72" y="379.584"
                                 style="stroke: #000000; stroke-width: 0.8"/>
                        </g>
                    </g>
                    <g id="text_8">
                        <!-- −2 -->
                        <g transform="translate(50.257812 383.383219) scale(0.1 -0.1)">
                            <use xlink:href="#DejaVuSans-2212"/>
                            <use xlink:href="#DejaVuSans-32" x="83.789062"/>
                        </g>
                    </g>
                </g>
                <g id="ytick_3">
                    <g id="line2d_15">
                        <path d="M 72 290.88
L 518.4 290.88 
" clip-path="url(#p9f91a67293)" style="fill: none; stroke: #b0b0b0; stroke-width: 0.8; stroke-linecap: square"/>
                    </g>
                    <g id="line2d_16">
                        <g>
                            <use xlink:href="#ma153114878" x="72" y="290.88"
                                 style="stroke: #000000; stroke-width: 0.8"/>
                        </g>
                    </g>
                    <g id="text_9">
                        <!-- 0 -->
                        <g transform="translate(58.6375 294.679219) scale(0.1 -0.1)">
                            <use xlink:href="#DejaVuSans-30"/>
                        </g>
                    </g>
                </g>
                <g id="ytick_4">
                    <g id="line2d_17">
                        <path d="M 72 202.176
L 518.4 202.176 
" clip-path="url(#p9f91a67293)" style="fill: none; stroke: #b0b0b0; stroke-width: 0.8; stroke-linecap: square"/>
                    </g>
                    <g id="line2d_18">
                        <g>
                            <use xlink:href="#ma153114878" x="72" y="202.176"
                                 style="stroke: #000000; stroke-width: 0.8"/>
                        </g>
                    </g>
                    <g id="text_10">
                        <!-- 2 -->
                        <g transform="translate(58.6375 205.975219) scale(0.1 -0.1)">
                            <use xlink:href="#DejaVuSans-32"/>
                        </g>
                    </g>
                </g>
                <g id="ytick_5">
                    <g id="line2d_19">
                        <path d="M 72 113.472
L 518.4 113.472 
" clip-path="url(#p9f91a67293)" style="fill: none; stroke: #b0b0b0; stroke-width: 0.8; stroke-linecap: square"/>
                    </g>
                    <g id="line2d_20">
                        <g>
                            <use xlink:href="#ma153114878" x="72" y="113.472"
                                 style="stroke: #000000; stroke-width: 0.8"/>
                        </g>
                    </g>
                    <g id="text_11">
                        <!-- 4 -->
                        <g transform="translate(58.6375 117.271219) scale(0.1 -0.1)">
                            <use xlink:href="#DejaVuSans-34"/>
                        </g>
                    </g>
                </g>
                <g id="text_12">
                    <!-- Time [ct] -->
                    <g transform="translate(44.178125 313.313594) rotate(-90) scale(0.1 -0.1)">
                        <defs>
                            <path id="DejaVuSans-54" d="M -19 4666
L 3928 4666 
L 3928 4134 
L 2272 4134 
L 2272 0 
L 1638 0 
L 1638 4134 
L -19 4134 
L -19 4666 
z
" transform="scale(0.015625)"/>
                            <path id="DejaVuSans-69" d="M 603 3500
L 1178 3500 
L 1178 0 
L 603 0 
L 603 3500 
z
M 603 4863 
L 1178 4863 
L 1178 4134 
L 603 4134 
L 603 4863 
z
" transform="scale(0.015625)"/>
                            <path id="DejaVuSans-6d" d="M 3328 2828
Q 3544 3216 3844 3400 
Q 4144 3584 4550 3584 
Q 5097 3584 5394 3201 
Q 5691 2819 5691 2113 
L 5691 0 
L 5113 0 
L 5113 2094 
Q 5113 2597 4934 2840 
Q 4756 3084 4391 3084 
Q 3944 3084 3684 2787 
Q 3425 2491 3425 1978 
L 3425 0 
L 2847 0 
L 2847 2094 
Q 2847 2600 2669 2842 
Q 2491 3084 2119 3084 
Q 1678 3084 1418 2786 
Q 1159 2488 1159 1978 
L 1159 0 
L 581 0 
L 581 3500 
L 1159 3500 
L 1159 2956 
Q 1356 3278 1631 3431 
Q 1906 3584 2284 3584 
Q 2666 3584 2933 3390 
Q 3200 3197 3328 2828 
z
" transform="scale(0.015625)"/>
                            <path id="DejaVuSans-74" d="M 1172 4494
L 1172 3500 
L 2356 3500 
L 2356 3053 
L 1172 3053 
L 1172 1153 
Q 1172 725 1289 603 
Q 1406 481 1766 481 
L 2356 481 
L 2356 0 
L 1766 0 
Q 1100 0 847 248 
Q 594 497 594 1153 
L 594 3053 
L 172 3053 
L 172 3500 
L 594 3500 
L 594 4494 
L 1172 4494 
z
" transform="scale(0.015625)"/>
                        </defs>
                        <use xlink:href="#DejaVuSans-54"/>
                        <use xlink:href="#DejaVuSans-69" x="57.958984"/>
                        <use xlink:href="#DejaVuSans-6d" x="85.742188"/>
                        <use xlink:href="#DejaVuSans-65" x="183.154297"/>
                        <use xlink:href="#DejaVuSans-20" x="244.677734"/>
                        <use xlink:href="#DejaVuSans-5b" x="276.464844"/>
                        <use xlink:href="#DejaVuSans-63" x="315.478516"/>
                        <use xlink:href="#DejaVuSans-74" x="370.458984"/>
                        <use xlink:href="#DejaVuSans-5d" x="409.667969"/>
                    </g>
                </g>
            </g>
            <g id="line2d_21">
                <path d="M 72 290.88
L 518.4 290.88 
" clip-path="url(#p9f91a67293)" style="fill: none; stroke: #000000; stroke-width: 1.5; stroke-linecap: square"/>
            </g>
            <g id="line2d_22">
                <path d="M 295.2 512.64
L 295.2 69.12 
" clip-path="url(#p9f91a67293)" style="fill: none; stroke: #000000; stroke-width: 1.5; stroke-linecap: square"/>
            </g>
            <g id="line2d_23">
                <path d="M 72 512.64
L 518.4 69.12 
" clip-path="url(#p9f91a67293)" style="fill: none; stroke: #808080; stroke-width: 1.5; stroke-linecap: square"/>
            </g>
            <g id="line2d_24">
                <path d="M 72 69.12
L 518.4 512.64 
" clip-path="url(#p9f91a67293)" style="fill: none; stroke: #808080; stroke-width: 1.5; stroke-linecap: square"/>
            </g>
            <g id="line2d_25">
                <path d="M 72 423.936
L 76.509091 421.248 
L 81.018182 418.56 
L 85.527273 415.872 
L 90.036364 413.184 
L 94.545455 410.496 
L 99.054545 407.808 
L 103.563636 405.12 
L 108.072727 402.432 
L 112.581818 399.744 
L 117.090909 397.056 
L 121.6 394.368 
L 126.109091 391.68 
L 130.618182 388.992 
L 135.127273 386.304 
L 139.636364 383.616 
L 144.145455 380.928 
L 148.654545 378.24 
L 153.163636 375.552 
L 157.672727 372.864 
L 162.181818 370.176 
L 166.690909 367.488 
L 171.2 364.8 
L 175.709091 362.112 
L 180.218182 359.424 
L 184.727273 356.736 
L 189.236364 354.048 
L 193.745455 351.36 
L 198.254545 348.672 
L 202.763636 345.984 
L 207.272727 343.296 
L 211.781818 340.608 
L 216.290909 337.92 
L 220.8 335.232 
L 225.309091 332.544 
L 229.818182 329.856 
L 234.327273 327.168 
L 238.836364 324.48 
L 243.345455 321.792 
L 247.854545 319.104 
L 252.363636 316.416 
L 256.872727 313.728 
L 261.381818 311.04 
L 265.890909 308.352 
L 270.4 305.664 
L 274.909091 302.976 
L 279.418182 300.288 
L 283.927273 297.6 
L 288.436364 294.912 
L 292.945455 292.224 
L 297.454545 289.536 
L 301.963636 286.848 
L 306.472727 284.16 
L 310.981818 281.472 
L 315.490909 278.784 
L 320 276.096 
L 324.509091 273.408 
L 329.018182 270.72 
L 333.527273 268.032 
L 338.036364 265.344 
L 342.545455 262.656 
L 347.054545 259.968 
L 351.563636 257.28 
L 356.072727 254.592 
L 360.581818 251.904 
L 365.090909 249.216 
L 369.6 246.528 
L 374.109091 243.84 
L 378.618182 241.152 
L 383.127273 238.464 
L 387.636364 235.776 
L 392.145455 233.088 
L 396.654545 230.4 
L 401.163636 227.712 
L 405.672727 225.024 
L 410.181818 222.336 
L 414.690909 219.648 
L 419.2 216.96 
L 423.709091 214.272 
L 428.218182 211.584 
L 432.727273 208.896 
L 437.236364 206.208 
L 441.745455 203.52 
L 446.254545 200.832 
L 450.763636 198.144 
L 455.272727 195.456 
L 459.781818 192.768 
L 464.290909 190.08 
L 468.8 187.392 
L 473.309091 184.704 
L 477.818182 182.016 
L 482.327273 179.328 
L 486.836364 176.64 
L 491.345455 173.952 
L 495.854545 171.264 
L 500.363636 168.576 
L 504.872727 165.888 
L 509.381818 163.2 
L 513.890909 160.512 
L 518.4 157.824 
" clip-path="url(#p9f91a67293)"
                      style="fill: none; stroke-dasharray: 5.55,2.4; stroke-dashoffset: 0; stroke: #ff7f0e; stroke-width: 1.5"/>
            </g>
            <g id="line2d_26">
                <path d="M 161.28 512.64
L 163.985455 508.16 
L 166.690909 503.68 
L 169.396364 499.2 
L 172.101818 494.72 
L 174.807273 490.24 
L 177.512727 485.76 
L 180.218182 481.28 
L 182.923636 476.8 
L 185.629091 472.32 
L 188.334545 467.84 
L 191.04 463.36 
L 193.745455 458.88 
L 196.450909 454.4 
L 199.156364 449.92 
L 201.861818 445.44 
L 204.567273 440.96 
L 207.272727 436.48 
L 209.978182 432 
L 212.683636 427.52 
L 215.389091 423.04 
L 218.094545 418.56 
L 220.8 414.08 
L 223.505455 409.6 
L 226.210909 405.12 
L 228.916364 400.64 
L 231.621818 396.16 
L 234.327273 391.68 
L 237.032727 387.2 
L 239.738182 382.72 
L 242.443636 378.24 
L 245.149091 373.76 
L 247.854545 369.28 
L 250.56 364.8 
L 253.265455 360.32 
L 255.970909 355.84 
L 258.676364 351.36 
L 261.381818 346.88 
L 264.087273 342.4 
L 266.792727 337.92 
L 269.498182 333.44 
L 272.203636 328.96 
L 274.909091 324.48 
L 277.614545 320 
L 280.32 315.52 
L 283.025455 311.04 
L 285.730909 306.56 
L 288.436364 302.08 
L 291.141818 297.6 
L 293.847273 293.12 
L 296.552727 288.64 
L 299.258182 284.16 
L 301.963636 279.68 
L 304.669091 275.2 
L 307.374545 270.72 
L 310.08 266.24 
L 312.785455 261.76 
L 315.490909 257.28 
L 318.196364 252.8 
L 320.901818 248.32 
L 323.607273 243.84 
L 326.312727 239.36 
L 329.018182 234.88 
L 331.723636 230.4 
L 334.429091 225.92 
L 337.134545 221.44 
L 339.84 216.96 
L 342.545455 212.48 
L 345.250909 208 
L 347.956364 203.52 
L 350.661818 199.04 
L 353.367273 194.56 
L 356.072727 190.08 
L 358.778182 185.6 
L 361.483636 181.12 
L 364.189091 176.64 
L 366.894545 172.16 
L 369.6 167.68 
L 372.305455 163.2 
L 375.010909 158.72 
L 377.716364 154.24 
L 380.421818 149.76 
L 383.127273 145.28 
L 385.832727 140.8 
L 388.538182 136.32 
L 391.243636 131.84 
L 393.949091 127.36 
L 396.654545 122.88 
L 399.36 118.4 
L 402.065455 113.92 
L 404.770909 109.44 
L 407.476364 104.96 
L 410.181818 100.48 
L 412.887273 96 
L 415.592727 91.52 
L 418.298182 87.04 
L 421.003636 82.56 
L 423.709091 78.08 
L 426.414545 73.6 
L 429.12 69.12 
" clip-path="url(#p9f91a67293)"
                      style="fill: none; stroke-dasharray: 5.55,2.4; stroke-dashoffset: 0; stroke: #ff7f0e; stroke-width: 1.5"/>
            </g>
            <g id="patch_3">
                <path d="M 72 512.64
L 72 69.12 
" style="fill: none; stroke: #000000; stroke-width: 0.8; stroke-linejoin: miter; stroke-linecap: square"/>
            </g>
            <g id="patch_4">
                <path d="M 518.4 512.64
L 518.4 69.12 
" style="fill: none; stroke: #000000; stroke-width: 0.8; stroke-linejoin: miter; stroke-linecap: square"/>
            </g>
            <g id="patch_5">
                <path d="M 72 512.64
L 518.4 512.64 
" style="fill: none; stroke: #000000; stroke-width: 0.8; stroke-linejoin: miter; stroke-linecap: square"/>
            </g>
            <g id="patch_6">
                <path d="M 72 69.12
L 518.4 69.12 
" style="fill: none; stroke: #000000; stroke-width: 0.8; stroke-linejoin: miter; stroke-linecap: square"/>
            </g>
            <g id="text_13">
                <!-- Minkowski Space -->
                <g transform="translate(244.259062 63.12) scale(0.12 -0.12)">
                    <defs>
                        <path id="DejaVuSans-4d" d="M 628 4666
L 1569 4666 
L 2759 1491 
L 3956 4666 
L 4897 4666 
L 4897 0 
L 4281 0 
L 4281 4097 
L 3078 897 
L 2444 897 
L 1241 4097 
L 1241 0 
L 628 0 
L 628 4666 
z
" transform="scale(0.015625)"/>
                        <path id="DejaVuSans-6e" d="M 3513 2113
L 3513 0 
L 2938 0 
L 2938 2094 
Q 2938 2591 2744 2837 
Q 2550 3084 2163 3084 
Q 1697 3084 1428 2787 
Q 1159 2491 1159 1978 
L 1159 0 
L 581 0 
L 581 3500 
L 1159 3500 
L 1159 2956 
Q 1366 3272 1645 3428 
Q 1925 3584 2291 3584 
Q 2894 3584 3203 3211 
Q 3513 2838 3513 2113 
z
" transform="scale(0.015625)"/>
                        <path id="DejaVuSans-6b" d="M 581 4863
L 1159 4863 
L 1159 1991 
L 2875 3500 
L 3609 3500 
L 1753 1863 
L 3688 0 
L 2938 0 
L 1159 1709 
L 1159 0 
L 581 0 
L 581 4863 
z
" transform="scale(0.015625)"/>
                        <path id="DejaVuSans-6f" d="M 1959 3097
Q 1497 3097 1228 2736 
Q 959 2375 959 1747 
Q 959 1119 1226 758 
Q 1494 397 1959 397 
Q 2419 397 2687 759 
Q 2956 1122 2956 1747 
Q 2956 2369 2687 2733 
Q 2419 3097 1959 3097 
z
M 1959 3584 
Q 2709 3584 3137 3096 
Q 3566 2609 3566 1747 
Q 3566 888 3137 398 
Q 2709 -91 1959 -91 
Q 1206 -91 779 398 
Q 353 888 353 1747 
Q 353 2609 779 3096 
Q 1206 3584 1959 3584 
z
" transform="scale(0.015625)"/>
                        <path id="DejaVuSans-77" d="M 269 3500
L 844 3500 
L 1563 769 
L 2278 3500 
L 2956 3500 
L 3675 769 
L 4391 3500 
L 4966 3500 
L 4050 0 
L 3372 0 
L 2619 2869 
L 1863 0 
L 1184 0 
L 269 3500 
z
" transform="scale(0.015625)"/>
                        <path id="DejaVuSans-73" d="M 2834 3397
L 2834 2853 
Q 2591 2978 2328 3040 
Q 2066 3103 1784 3103 
Q 1356 3103 1142 2972 
Q 928 2841 928 2578 
Q 928 2378 1081 2264 
Q 1234 2150 1697 2047 
L 1894 2003 
Q 2506 1872 2764 1633 
Q 3022 1394 3022 966 
Q 3022 478 2636 193 
Q 2250 -91 1575 -91 
Q 1294 -91 989 -36 
Q 684 19 347 128 
L 347 722 
Q 666 556 975 473 
Q 1284 391 1588 391 
Q 1994 391 2212 530 
Q 2431 669 2431 922 
Q 2431 1156 2273 1281 
Q 2116 1406 1581 1522 
L 1381 1569 
Q 847 1681 609 1914 
Q 372 2147 372 2553 
Q 372 3047 722 3315 
Q 1072 3584 1716 3584 
Q 2034 3584 2315 3537 
Q 2597 3491 2834 3397 
z
" transform="scale(0.015625)"/>
                    </defs>
                    <use xlink:href="#DejaVuSans-4d"/>
                    <use xlink:href="#DejaVuSans-69" x="86.279297"/>
                    <use xlink:href="#DejaVuSans-6e" x="114.0625"/>
                    <use xlink:href="#DejaVuSans-6b" x="177.441406"/>
                    <use xlink:href="#DejaVuSans-6f" x="231.726562"/>
                    <use xlink:href="#DejaVuSans-77" x="292.908203"/>
                    <use xlink:href="#DejaVuSans-73" x="374.695312"/>
                    <use xlink:href="#DejaVuSans-6b" x="426.794922"/>
                    <use xlink:href="#DejaVuSans-69" x="484.705078"/>
                    <use xlink:href="#DejaVuSans-20" x="512.488281"/>
                    <use xlink:href="#DejaVuSans-53" x="544.275391"/>
                    <use xlink:href="#DejaVuSans-70" x="607.751953"/>
                    <use xlink:href="#DejaVuSans-61" x="671.228516"/>
                    <use xlink:href="#DejaVuSans-63" x="732.507812"/>
                    <use xlink:href="#DejaVuSans-65" x="787.488281"/>
                </g>
            </g>
            <g id="legend_1">
                <g id="patch_7">
                    <path d="M 444.8 91.92
L 511.4 91.92 
Q 513.4 91.92 513.4 89.92 
L 513.4 76.12 
Q 513.4 74.12 511.4 74.12 
L 444.8 74.12 
Q 442.8 74.12 442.8 76.12 
L 442.8 89.92 
Q 442.8 91.92 444.8 91.92 
z
" style="fill: #ffffff; opacity: 0.8; stroke: #cccccc; stroke-linejoin: miter"/>
                </g>
                <g id="line2d_27">
                    <path d="M 446.8 82.32
L 456.8 82.32 
L 466.8 82.32 
" style="fill: none; stroke-dasharray: 5.55,2.4; stroke-dashoffset: 0; stroke: #ff7f0e; stroke-width: 1.5"/>
                </g>
                <g id="text_14">
                    <!-- $\beta =$0.6 -->
                    <g transform="translate(474.8 85.82) scale(0.1 -0.1)">
                        <defs>
                            <path id="DejaVuSans-Oblique-3b2" d="M 872 216
L 572 -1331 
L -6 -1331 
L 928 3478 
Q 1206 4903 2538 4903 
Q 3888 4903 3659 3700 
Q 3503 2844 2894 2531 
Q 3713 2250 3553 1416 
Q 3272 -69 1759 -66 
Q 1097 -63 872 216 
z
M 1019 966 
Q 1259 422 1875 425 
Q 2775 425 2966 1406 
Q 3138 2288 1675 2219 
L 1778 2750 
Q 2909 2731 3106 3750 
Q 3241 4438 2509 4434 
Q 1691 4434 1503 3459 
L 1019 966 
z
" transform="scale(0.015625)"/>
                            <path id="DejaVuSans-3d" d="M 678 2906
L 4684 2906 
L 4684 2381 
L 678 2381 
L 678 2906 
z
M 678 1631 
L 4684 1631 
L 4684 1100 
L 678 1100 
L 678 1631 
z
" transform="scale(0.015625)"/>
                            <path id="DejaVuSans-2e" d="M 684 794
L 1344 794 
L 1344 0 
L 684 0 
L 684 794 
z
" transform="scale(0.015625)"/>
                            <path id="DejaVuSans-36" d="M 2113 2584
Q 1688 2584 1439 2293 
Q 1191 2003 1191 1497 
Q 1191 994 1439 701 
Q 1688 409 2113 409 
Q 2538 409 2786 701 
Q 3034 994 3034 1497 
Q 3034 2003 2786 2293 
Q 2538 2584 2113 2584 
z
M 3366 4563 
L 3366 3988 
Q 3128 4100 2886 4159 
Q 2644 4219 2406 4219 
Q 1781 4219 1451 3797 
Q 1122 3375 1075 2522 
Q 1259 2794 1537 2939 
Q 1816 3084 2150 3084 
Q 2853 3084 3261 2657 
Q 3669 2231 3669 1497 
Q 3669 778 3244 343 
Q 2819 -91 2113 -91 
Q 1303 -91 875 529 
Q 447 1150 447 2328 
Q 447 3434 972 4092 
Q 1497 4750 2381 4750 
Q 2619 4750 2861 4703 
Q 3103 4656 3366 4563 
z
" transform="scale(0.015625)"/>
                        </defs>
                        <use xlink:href="#DejaVuSans-Oblique-3b2" transform="translate(0 0.390625)"/>
                        <use xlink:href="#DejaVuSans-3d" transform="translate(83.300781 0.390625)"/>
                        <use xlink:href="#DejaVuSans-30" transform="translate(186.572266 0.390625)"/>
                        <use xlink:href="#DejaVuSans-2e" transform="translate(250.195312 0.390625)"/>
                        <use xlink:href="#DejaVuSans-36" transform="translate(281.982422 0.390625)"/>
                    </g>
                </g>
            </g>
        </g>
    </g>
    <defs>
        <clipPath id="p9f91a67293">
            <rect x="72" y="69.12" width="446.4" height="443.52"/>
        </clipPath>
    </defs>
</svg>
